<?xml version="1.0" encoding="UTF-8"?>
<svg id="Camada_2" data-name="Camada 2" xmlns="http://www.w3.org/2000/svg" xmlns:xlink="http://www.w3.org/1999/xlink" viewBox="0 0 606.01 134.23">
  <defs>
    <style>
      .cls-1 {
        clip-path: url(#clippath-6);
      }

      .cls-2 {
        clip-path: url(#clippath-7);
      }

      .cls-3 {
        clip-path: url(#clippath-4);
      }

      .cls-4 {
        fill: url(#Gradiente_sem_nome_11-5);
      }

      .cls-5 {
        fill: url(#Gradiente_sem_nome_11);
      }

      .cls-6 {
        fill: #fff;
      }

      .cls-7 {
        fill: none;
      }

      .cls-8 {
        clip-path: url(#clippath-1);
      }

      .cls-9 {
        fill: url(#Gradiente_sem_nome_12);
      }

      .cls-10 {
        fill: url(#Gradiente_sem_nome_6-2);
      }

      .cls-11 {
        clip-path: url(#clippath-5);
      }

      .cls-12 {
        clip-path: url(#clippath-3);
      }

      .cls-13 {
        fill: url(#Gradiente_sem_nome_11-2);
      }

      .cls-14 {
        fill: url(#Gradiente_sem_nome_6);
      }

      .cls-15 {
        fill: url(#Gradiente_sem_nome_11-3);
      }

      .cls-16 {
        clip-path: url(#clippath-2);
      }

      .cls-17 {
        fill: url(#Gradiente_sem_nome_11-4);
      }

      .cls-18 {
        clip-path: url(#clippath);
      }
    </style>
    <clipPath id="clippath">
      <path class="cls-7" d="M40.54,58.68l16.45,39.05H23.19l17.35-39.05ZM44.13,32.95L0,131.69h7.78l12.27-27.22h39.79l3.44,8.38c3.19,7.68,7.33,12.84,12.42,15.49,5.09,2.64,10.77,3.36,17.06,3.36h7.18v-3.88c-6.58-.71-11.77-5.68-15.56-14.96L50.86,32.95h-6.73Z"/>
    </clipPath>
    <linearGradient id="Gradiente_sem_nome_6" data-name="Gradiente sem nome 6" x1="-208.99" y1="451.14" x2="-207.99" y2="451.14" gradientTransform="translate(-107292.18 49733.44) rotate(90) scale(237.93 -237.93)" gradientUnits="userSpaceOnUse">
      <stop offset="0" stop-color="#7a7979"/>
      <stop offset=".33" stop-color="#747373"/>
      <stop offset=".74" stop-color="#656564"/>
      <stop offset="1" stop-color="#585857"/>
    </linearGradient>
    <clipPath id="clippath-1">
      <path class="cls-7" d="M122.63,125.26l-3.29-.61V39.98l3.29-.44c2-.4,4.64-.61,7.93-.61h1.19c7.09,0,13.37,1.8,18.85,5.39,5.49,3.59,9.75,8.66,12.79,15.18,3.04,6.54,4.57,14.13,4.57,22.81s-1.52,16.46-4.57,23.03c-3.04,6.59-7.28,11.63-12.72,15.11-5.44,3.49-11.65,5.24-18.62,5.24h-1.5c-3.2,0-5.84-.15-7.93-.44M87.93,32.95v4.49h1.49c4.19,0,6.98,1.22,8.38,3.66,1.39,2.43,2.09,6.21,2.09,11.29v79.29h32.61c12.27,0,22.77-2.09,31.5-6.28,8.72-4.19,15.3-10.04,19.75-17.58,4.43-7.52,6.65-16.23,6.65-26.1,0-15.46-5.26-27.45-15.78-35.98-10.52-8.53-25.85-12.8-46-12.8h-40.69Z"/>
    </clipPath>
    <linearGradient id="Gradiente_sem_nome_6-2" data-name="Gradiente sem nome 6" y1="451.13" y2="451.13" gradientTransform="translate(-107200.34 49648.73) rotate(90) scale(237.93 -237.93)" xlink:href="#Gradiente_sem_nome_6"/>
    <clipPath id="clippath-2">
      <path class="cls-7" d="M207.64,37.21c-5.34,4.64-8.01,10.8-8.01,18.48,0,5.59,1.32,10.32,3.96,14.21,2.64,3.9,7.16,7.73,13.54,11.52l18.4,10.92c5.78,3.4,9.97,6.64,12.57,9.73,2.59,3.09,3.89,6.73,3.89,10.92,0,4.78-1.92,8.52-5.76,11.22-3.84,2.69-8.45,4.03-13.84,4.03-8.58,0-15.31-2.22-20.2-6.65-4.88-4.44-8.18-11.65-9.87-21.62h-2.69v16.01c0,3.59,1.67,6.78,5.01,9.57,3.34,2.8,7.66,4.94,12.94,6.44,5.28,1.49,10.67,2.24,16.15,2.24,9.57,0,17.15-2.52,22.74-7.56,5.58-5.03,8.38-11.74,8.38-20.11,0-5.39-1.39-9.83-4.19-13.32-2.8-3.49-7.58-7.28-14.36-11.37l-18.4-10.92c-5.98-3.59-10.24-6.73-12.79-9.42-2.55-2.69-3.82-6.09-3.82-10.18,0-4.48,1.74-8.12,5.23-10.92,3.49-2.79,7.53-4.19,12.12-4.19,8.58,0,15.23,2.17,19.97,6.51,4.74,4.33,7.95,11.49,9.65,21.46h2.69v-16.01c0-3.59-1.62-6.76-4.86-9.5-3.24-2.74-7.36-4.83-12.34-6.28-4.99-1.45-10.03-2.17-15.11-2.17-8.68,0-15.69,2.31-21.02,6.95"/>
    </clipPath>
    <linearGradient id="Gradiente_sem_nome_11" data-name="Gradiente sem nome 11" x1="-208.99" y1="451.11" x2="-207.99" y2="451.11" gradientTransform="translate(-161464 74947.17) rotate(90) scale(358.44 -358.44)" gradientUnits="userSpaceOnUse">
      <stop offset="0" stop-color="#006aac"/>
      <stop offset=".08" stop-color="#0266a8"/>
      <stop offset=".63" stop-color="#115396"/>
      <stop offset="1" stop-color="#174c90"/>
    </linearGradient>
    <clipPath id="clippath-3">
      <path class="cls-7" d="M285.12,79.03c1.35-4.09,3.22-7.3,5.61-9.65,2.39-2.34,5.09-3.52,8.08-3.52,5.28,0,9.22,2.3,11.82,6.89,2.59,4.58,3.89,11.26,3.89,20.04h-31.42c0-5.09.67-9.67,2.02-13.76M282.88,64.74c-4.54,3.24-8.01,7.66-10.4,13.25-2.39,5.58-3.59,11.76-3.59,18.54s1.2,13.1,3.59,18.63c2.39,5.54,5.93,9.92,10.62,13.17,4.69,3.24,10.42,4.86,17.2,4.86,5.88,0,11.02-1.25,15.41-3.74,4.39-2.49,8.23-6.49,11.52-11.97l-2.99-2.25c-2.79,3.99-5.81,6.99-9.05,8.98-3.24,2-7.21,2.98-11.9,2.98-6.28,0-11.22-2.64-14.81-7.93-3.58-5.28-5.38-12.11-5.38-20.49h45.33l.3-5.99c0-10.66-2.46-18.82-7.4-24.46-4.94-5.64-12.44-8.45-22.52-8.45-6.08,0-11.4,1.62-15.93,4.86"/>
    </clipPath>
    <linearGradient id="Gradiente_sem_nome_11-2" data-name="Gradiente sem nome 11" y1="451.11" y2="451.11" gradientTransform="translate(-161396.32 74895.07) rotate(90) scale(358.44 -358.44)" xlink:href="#Gradiente_sem_nome_11"/>
    <clipPath id="clippath-4">
      <path class="cls-7" d="M361.57,62.27c-3.04,1.61-5.46,3.54-7.26,5.84h-.75c-.8-2.4-2.17-4.11-4.12-5.16-1.94-1.05-4.81-1.57-8.6-1.57h-11.97v2.98h1.5c4.19,0,6.97,1.23,8.38,3.66,1.39,2.45,2.09,6.21,2.09,11.3v52.36h13.47v-55.36c1.5-2.29,3.49-4.1,5.98-5.45,2.5-1.35,5.23-2.02,8.23-2.02,2.7,0,5.09.38,7.18,1.12,2.09.76,3.69,1.88,4.79,3.37l5.99-4.49c-1.8-3.19-3.54-5.43-5.23-6.73-2-1.5-4.99-2.24-8.97-2.24s-7.67.79-10.7,2.39"/>
    </clipPath>
    <linearGradient id="Gradiente_sem_nome_11-3" data-name="Gradiente sem nome 11" y1="451.11" y2="451.11" gradientTransform="translate(-161337.78 74841.21) rotate(90) scale(358.44 -358.44)" xlink:href="#Gradiente_sem_nome_11"/>
    <clipPath id="clippath-5">
      <path class="cls-7" d="M420.37,62.27c-3.04,1.61-5.47,3.54-7.26,5.84h-.74c-.8-2.4-2.18-4.11-4.12-5.16-1.95-1.05-4.82-1.57-8.61-1.57h-11.97v2.98h1.5c4.19,0,6.98,1.23,8.38,3.66,1.4,2.45,2.09,6.21,2.09,11.3v52.36h13.46v-55.36c1.5-2.29,3.49-4.1,5.98-5.45,2.5-1.35,5.25-2.02,8.23-2.02,2.7,0,5.09.38,7.18,1.12,2.09.76,3.69,1.88,4.78,3.37l5.99-4.49c-1.8-3.19-3.54-5.43-5.24-6.73-2-1.5-4.99-2.24-8.97-2.24s-7.66.79-10.7,2.39"/>
    </clipPath>
    <linearGradient id="Gradiente_sem_nome_11-4" data-name="Gradiente sem nome 11" y1="451.11" y2="451.11" gradientTransform="translate(-161279.21 74787.92) rotate(90) scale(358.44 -358.44)" xlink:href="#Gradiente_sem_nome_11"/>
    <clipPath id="clippath-6">
      <path class="cls-7" d="M463.41,122.79c-2.75-2.45-4.12-5.96-4.12-10.54s2.14-8.11,6.43-10.85c4.28-2.75,10.12-4.11,17.51-4.11h4.48v20.2c-1.79,2.79-3.79,4.98-5.98,6.58-2.19,1.59-4.94,2.4-8.23,2.4-3.99,0-7.35-1.22-10.09-3.67M461.46,61.15c-4.14.85-7.11,2.17-8.9,3.97-1.7,1.69-2.75,3.52-3.14,5.45-.4,1.95-.61,4.61-.61,8.01h6.73c1.1-4.69,3-7.99,5.69-9.87,2.7-1.9,6.28-2.85,10.77-2.85,5.09,0,8.97,1.8,11.67,5.39,2.69,3.59,4.03,10.26,4.03,20.04h-4.48c-11.37,0-20.57,1.59-27.6,4.78-7.04,3.2-10.56,8.58-10.56,16.17,0,5.08,1.17,9.17,3.52,12.26,2.34,3.09,5.16,5.31,8.45,6.66,3.3,1.35,6.54,2.02,9.73,2.02,5.19,0,9.52-.8,13.01-2.4,3.49-1.6,6.14-3.53,7.93-5.83h.76l5.23,6.73h7.48v-40.39c0-12.26-2.34-20.56-7.02-24.91-4.69-4.33-11.08-6.5-19.15-6.5-4.89,0-9.4.43-13.54,1.27"/>
    </clipPath>
    <linearGradient id="Gradiente_sem_nome_11-5" data-name="Gradiente sem nome 11" y1="451.11" y2="451.11" gradientTransform="translate(-161223.99 74737) rotate(90) scale(358.44 -358.44)" xlink:href="#Gradiente_sem_nome_11"/>
    <clipPath id="clippath-7">
      <path class="cls-7" d="M538.52,1.87l-3.21,2.04-4.29,1.8-3.38,1.85-3.01,1.68-3,1.5-34.04,31.28,1.07.6,2.93-.23,2.63-1.52,2.97-.95,2.71.68,2.42,2.86,4.02,3.85,3.28,4-.11,2.37,1.38,1.71,2.03-.45,2.43-1.17,1.68-.83,1.75,1.73,1.03,1.33,1.54,2.27,2.28,2.12,2.76-.42,2.26,2.49,2.68,1.41,1.94,1.55,2.24,2.85,1.71,2.46,2.74-.05,2.81,2.33.46,1.85,1.92,1.92,1.88,2.83s.73.03,1.26.43c.53.39,2.65,1.96,2.65,1.96l1.38,1.71-.38,4.18-1.55,1.94s-1.78,1.2-1.81,1.74c-.03.55-1.61,5.99.03,6.9.51.28,2.22-.76,2.22-.76l1.87-1.88,3.34-1.71,1.79-3.02,3.26-3.14,1.32-4.69,1.86-4.48,1.77-2.66.23-4.74,1.77-2.66,2.28-1.72.38-4.19,4.06-.72,2.08-1.36.76-4.35,2.64-1.7,2.19-7.57,1.68-.83,2.52.85.12,1.28,1.97.83,1.54-1.57,2.03-.45,2.74.13-.39,4.37-1.91,1.74-2.34,3-4,3.28-1.98,3.2-1.76,2.48-3.76,2.2-4.14,2.36s-2.42.98-2.99,1.32c-.57.34-2.07,1.19-2.07,1.19l.08,2.2,1.47-.11,2.02-.09,3.17-1.31,3.78-2.56,3.62-3.12,3.62-3.12,4.04-4.2,4.66-5.81,2.98-4.97,3.41-6.24,1.44-3.4,2.02-4.11-1.59-1.17-2.34-.66-.2-3.48,1.63-3.58,2.16-3.01.07-1.46-4.94.13-3.97-1.11-2.88-.87-3.65-4.01-2.07-2.66-2.79-2.88s-3.01-1.97-3.72-2.55c-.71-.58-4.13-1.66-4.13-1.66,0,0-3.76-1.64-4.85-1.88-1.09-.23-4.37-.39-5.44-.99-1.07-.6-5.59-1.55-6.13-1.76-.54-.21-3.22-1.62-6.69-1.6-3.47.02-7.85-.19-9.13-.26-1.28-.06-4.01-.19-4.01-.19l-2.83,1.87Z"/>
    </clipPath>
    <linearGradient id="Gradiente_sem_nome_12" data-name="Gradiente sem nome 12" x1="-208.99" y1="451.13" x2="-207.99" y2="451.13" gradientTransform="translate(-74151.85 34541.81) rotate(90) scale(165.58 -165.58)" gradientUnits="userSpaceOnUse">
      <stop offset="0" stop-color="#006aac"/>
      <stop offset=".36" stop-color="#0365a8"/>
      <stop offset=".73" stop-color="#0c599c"/>
      <stop offset="1" stop-color="#174c90"/>
    </linearGradient>
  </defs>
  <g id="Camada_1-2" data-name="Camada 1">
    <g>
      <g class="cls-18">
        <rect class="cls-14" x="-12.6" y="19.38" width="125.13" height="125.89" transform="translate(-43.89 103.89) rotate(-71.69)"/>
      </g>
      <g class="cls-8">
        <rect class="cls-10" x="76.2" y="18.17" width="125.93" height="128.3" transform="translate(17.29 188.58) rotate(-71.69)"/>
      </g>
      <g class="cls-16">
        <rect class="cls-5" x="171.4" y="30.93" width="121.7" height="102.64" transform="translate(60.62 259.02) rotate(-65.35)"/>
      </g>
      <g class="cls-12">
        <rect class="cls-13" x="253.02" y="54.06" width="91.58" height="84.96" transform="translate(86.44 327.85) rotate(-65.35)"/>
      </g>
      <g class="cls-3">
        <rect class="cls-15" x="313.03" y="54.64" width="89.28" height="82.3" transform="translate(121.44 380.91) rotate(-65.35)"/>
      </g>
      <g class="cls-11">
        <rect class="cls-17" x="371.84" y="54.64" width="89.28" height="82.3" transform="translate(155.71 434.36) rotate(-65.35)"/>
      </g>
      <g class="cls-1">
        <rect class="cls-4" x="428.12" y="55.75" width="90.02" height="81.56" transform="translate(188.05 486.28) rotate(-65.35)"/>
      </g>
      <g class="cls-2">
        <rect class="cls-9" x="469.71" y="-26.44" width="154.19" height="151.65" transform="translate(94.83 361.07) rotate(-39.75)"/>
        <rect class="cls-6" x="409.89" y="68.79" width="180.49" height="2.63" transform="translate(22.47 234.08) rotate(-26.93)"/>
        <rect class="cls-6" x="500.11" y="-89.19" width="2.63" height="171.3" transform="translate(313.06 461.17) rotate(-67.53)"/>
        <rect class="cls-6" x="479.74" y="106.62" width="162.33" height="2.63" transform="translate(320.3 625.99) rotate(-75.98)"/>
        <rect class="cls-6" x="651.54" y="-10.73" width="2.63" height="170.8" transform="translate(241.98 587.49) rotate(-57.82)"/>
        <rect class="cls-6" x="529.41" y="-40.81" width="143.37" height="2.63" transform="translate(466.82 547.75) rotate(-73.36)"/>
        <path class="cls-6" d="M584.56,29.91c.16-2.54-1.76-4.73-4.3-4.89-2.54-.16-4.73,1.76-4.89,4.3-.16,2.54,1.76,4.73,4.3,4.89,2.54.16,4.73-1.76,4.89-4.3"/>
      </g>
    </g>
  </g>
</svg>